<?xml version="1.0" encoding="UTF-8"?>
<svg version="1.2" baseProfile="tiny" xmlns="http://www.w3.org/2000/svg" width="1080" height="1080">
<path d="M0 0 C356.4 0 712.8 0 1080 0 C1080 356.4 1080 712.8 1080 1080 C723.6 1080 367.2 1080 0 1080 C0 723.6 0 367.2 0 0 Z " fill="#213439" transform="translate(0,0)"/>
<path d="M0 0 C26.16718157 -0.51435058 51.49338785 1.81450965 77.32861328 6.02001953 C78.08147614 6.14113098 78.83433899 6.26224243 79.61001587 6.38702393 C89.43691149 7.98533789 98.85122897 10.18038235 108.39111328 13.08251953 C110.05204313 13.54872653 111.7146169 14.00915113 113.37939453 14.46142578 C120.78519995 16.48736271 128.1513625 18.51580344 135.39111328 21.08251953 C136.69949125 21.52976586 138.00811094 21.97630534 139.31689453 22.42236328 C140.80013569 22.93359417 142.28320664 23.44531914 143.76611328 23.95751953 C144.79200562 24.30641235 144.79200562 24.30641235 145.83862305 24.66235352 C151.8646695 26.76647346 157.61202037 29.38133463 163.39111328 32.08251953 C164.27412109 32.49115234 165.15712891 32.89978516 166.06689453 33.32080078 C193.92757089 46.26782097 220.10397021 61.16449266 244.39111328 80.08251953 C245.40431641 80.83146484 246.41751953 81.58041016 247.46142578 82.35205078 C255.75597729 88.50627582 263.22086251 95.36531641 270.69433594 102.48291016 C273.01080039 104.66671952 275.384367 106.78283523 277.76611328 108.89501953 C284.45652334 114.88643153 290.7483558 121.18204068 296.59033203 128.00439453 C298.58264964 130.30355498 300.64267953 132.53222807 302.70361328 134.77001953 C345.26874296 182.02452791 374.4241163 243.14603982 387.39111328 305.08251953 C387.87641286 307.26749925 388.36208478 309.4523963 388.84814453 311.63720703 C392.10297499 326.81153794 393.46652969 341.78745718 394.17333984 357.26538086 C394.32322515 360.02360851 394.32322515 360.02360851 394.89868164 362.44482422 C395.56714906 366.0254499 395.59283284 369.57343406 395.62939453 373.20361328 C395.6438134 374.40438255 395.6438134 374.40438255 395.65852356 375.62940979 C395.68342513 378.25965627 395.69583925 380.88966828 395.70361328 383.52001953 C395.70689636 384.42002686 395.71017944 385.32003418 395.71356201 386.24731445 C395.72960732 399.95182456 395.01393046 413.46107476 393.51611328 427.08251953 C393.42907135 427.88076141 393.34202942 428.6790033 393.25234985 429.50143433 C392.3648705 437.47181856 391.26191175 445.27431406 389.39111328 453.08251953 C389.07300886 455.26633163 388.77958 457.45394423 388.51611328 459.64501953 C387.51653641 466.97524993 385.77714587 473.96079524 383.88647461 481.10180664 C383.35704987 483.21872282 382.91041188 485.3448062 382.46533203 487.48095703 C381.41634477 492.26460399 379.86962748 496.79543199 378.20361328 501.39501953 C377.57427528 503.15528189 376.94538189 504.91570327 376.31689453 506.67626953 C375.99672363 507.56958984 375.67655273 508.46291016 375.34667969 509.38330078 C374.41492328 512.01526266 373.51301411 514.65540732 372.62158203 517.30126953 C369.36819973 526.91745335 365.81412455 536.17944038 361.29150391 545.27148438 C360.37994001 547.10499332 359.48618072 548.94642783 358.59423828 550.78955078 C347.38373164 573.77197118 334.60012971 595.52601292 319.39111328 616.08251953 C318.99601563 616.61796387 318.60091797 617.1534082 318.19384766 617.70507812 C303.70672608 637.22475544 287.04115119 656.33760398 268.57470703 672.17626953 C266.04583504 674.38394311 263.59963957 676.67183082 261.14111328 678.95751953 C255.50695399 684.08862889 249.545996 688.6000774 243.39111328 693.08251953 C242.29470799 693.90754718 241.19969046 694.73442181 240.10595703 695.56298828 C223.15051216 708.33219888 205.39230884 719.62630719 186.39111328 729.08251953 C184.96469749 729.80653116 183.53890312 730.53176853 182.11376953 731.25830078 C178.22294125 733.23445614 174.31212791 735.16708745 170.39111328 737.08251953 C168.76496094 737.88302734 168.76496094 737.88302734 167.10595703 738.69970703 C160.4836791 741.86724022 153.78108809 744.45527206 146.84423828 746.82421875 C141.96889932 748.49435176 137.21046678 750.35257107 132.45361328 752.33251953 C127.66546069 754.30276414 123.07114834 755.75570156 117.95751953 756.59814453 C114.82487299 757.18938985 111.82524445 758.06081817 108.76611328 758.95751953 C95.79234219 762.7345654 83.02021723 765.69609488 69.62719727 767.46557617 C67.32489596 767.77051188 65.02505719 768.0905203 62.72509766 768.41259766 C54.33177046 769.5651453 45.99176474 770.41185168 37.5300293 770.84741211 C34.49862208 771.00244168 34.49862208 771.00244168 32.00683594 771.59594727 C28.29743487 772.28596372 24.60823409 772.26472966 20.84814453 772.28564453 C19.5992469 772.29603004 19.5992469 772.29603004 18.32511902 772.30662537 C15.61790283 772.32397298 12.91088263 772.33022635 10.20361328 772.33251953 C9.27895264 772.33385895 8.35429199 772.33519836 7.40161133 772.33657837 C-6.80242951 772.33211614 -20.55787659 771.56748755 -34.62597656 769.49707031 C-37.74735896 769.06327531 -40.86899106 768.71683576 -44.00341797 768.39111328 C-60.85205278 766.62147037 -76.97323671 763.39227012 -93.10498047 758.17626953 C-95.94275024 757.29045511 -98.77937882 756.46768921 -101.64404297 755.67626953 C-110.3640875 753.26526899 -118.85024956 750.85450965 -127.13232422 747.15673828 C-129.39923543 746.1734566 -131.6201379 745.41664418 -133.98388672 744.70751953 C-139.2363817 743.03930425 -144.01860294 740.44375561 -148.88623047 737.89892578 C-151.63643251 736.50095995 -154.42337331 735.35687606 -157.30419922 734.25439453 C-163.31091802 731.89568772 -168.8955247 728.87097058 -174.54638672 725.77001953 C-175.55378906 725.22667969 -176.56119141 724.68333984 -177.59912109 724.12353516 C-203.44019524 710.04804332 -226.76048885 692.11153917 -248.77294922 672.69970703 C-250.07484682 671.55292914 -251.38277227 670.4129781 -252.69482422 669.27783203 C-253.38833984 668.67712891 -254.08185547 668.07642578 -254.79638672 667.45751953 C-255.40869141 666.92900391 -256.02099609 666.40048828 -256.65185547 665.85595703 C-268.26613341 655.33124209 -278.89364023 643.35940328 -288.60888672 631.08251953 C-290.08730317 629.31105982 -291.5664902 627.54024297 -293.04638672 625.77001953 C-308.19789657 607.19044787 -320.64393464 586.58970615 -332.19506836 565.6394043 C-333.12892549 563.95052746 -334.07069125 562.26599674 -335.02075195 560.58618164 C-337.15954626 556.7981871 -339.16223472 553.11227822 -340.67138672 549.02001953 C-341.82087011 546.0175689 -343.03454671 543.16873138 -344.54638672 540.33251953 C-346.96751821 535.63211972 -348.60247237 530.67548979 -350.33154297 525.68798828 C-351.46633739 522.48488354 -352.70266127 519.35387317 -353.98388672 516.20751953 C-357.55893225 507.00009094 -360.10400332 497.46015818 -362.78320312 487.96240234 C-363.50126666 485.45788506 -364.25223231 482.96840118 -365.02685547 480.48095703 C-368.77795903 468.20064243 -370.50787149 455.71058422 -372.2109375 443.00439453 C-372.52727037 440.68177378 -372.86331153 438.3662923 -373.22998047 436.05126953 C-380.83975259 387.44311272 -377.4793717 333.35625929 -363.60888672 286.08251953 C-363.19001185 284.61012076 -362.77203982 283.13746483 -362.35498047 281.66455078 C-358.63871571 268.66053657 -354.55731395 255.89716376 -349.08544922 243.50830078 C-347.61080094 240.08696072 -346.28445269 236.63580242 -344.98388672 233.14501953 C-343.69608856 229.73832025 -342.42193846 226.51850647 -340.54638672 223.39501953 C-339.00641501 220.76216467 -338.01198414 218.59131013 -336.98388672 215.77001953 C-317.88945247 166.93233192 -275.14328114 119.24387215 -234.60888672 87.08251953 C-233.45793533 86.14129108 -232.30827147 85.19848674 -231.15966797 84.25439453 C-222.30388732 77.0106757 -213.16078025 70.37618056 -203.60888672 64.08251953 C-202.90344727 63.61378418 -202.19800781 63.14504883 -201.47119141 62.66210938 C-185.73300809 52.25800833 -169.07086627 42.30097225 -151.60888672 35.08251953 C-150.2711254 34.45239485 -148.9367162 33.81512483 -147.60498047 33.17236328 C-129.08118246 24.35689522 -109.24543238 17.51753591 -89.23779297 12.94189453 C-85.8091758 12.12995074 -82.45643474 11.18178549 -79.07836914 10.18676758 C-69.01289404 7.24584402 -58.99580955 5.44971961 -48.60888672 4.08251953 C-47.63467773 3.95103516 -46.66046875 3.81955078 -45.65673828 3.68408203 C-30.4211827 1.65075639 -15.36010142 0.35121866 0 0 Z " fill="#213439" transform="translate(531.60888671875,160.91748046875)"/>
<path d="M0 0 C26.16718157 -0.51435058 51.49338785 1.81450965 77.32861328 6.02001953 C78.08147614 6.14113098 78.83433899 6.26224243 79.61001587 6.38702393 C89.43691149 7.98533789 98.85122897 10.18038235 108.39111328 13.08251953 C110.05204313 13.54872653 111.7146169 14.00915113 113.37939453 14.46142578 C120.78519995 16.48736271 128.1513625 18.51580344 135.39111328 21.08251953 C136.69949125 21.52976586 138.00811094 21.97630534 139.31689453 22.42236328 C140.80013569 22.93359417 142.28320664 23.44531914 143.76611328 23.95751953 C144.79200562 24.30641235 144.79200562 24.30641235 145.83862305 24.66235352 C151.8646695 26.76647346 157.61202037 29.38133463 163.39111328 32.08251953 C164.27412109 32.49115234 165.15712891 32.89978516 166.06689453 33.32080078 C193.92757089 46.26782097 220.10397021 61.16449266 244.39111328 80.08251953 C245.40431641 80.83146484 246.41751953 81.58041016 247.46142578 82.35205078 C255.75597729 88.50627582 263.22086251 95.36531641 270.69433594 102.48291016 C273.01080039 104.66671952 275.384367 106.78283523 277.76611328 108.89501953 C284.45652334 114.88643153 290.7483558 121.18204068 296.59033203 128.00439453 C298.58264964 130.30355498 300.64267953 132.53222807 302.70361328 134.77001953 C345.26874296 182.02452791 374.4241163 243.14603982 387.39111328 305.08251953 C387.87641286 307.26749925 388.36208478 309.4523963 388.84814453 311.63720703 C392.10297499 326.81153794 393.46652969 341.78745718 394.17333984 357.26538086 C394.32322515 360.02360851 394.32322515 360.02360851 394.89868164 362.44482422 C395.56714906 366.0254499 395.59283284 369.57343406 395.62939453 373.20361328 C395.6438134 374.40438255 395.6438134 374.40438255 395.65852356 375.62940979 C395.68342513 378.25965627 395.69583925 380.88966828 395.70361328 383.52001953 C395.70689636 384.42002686 395.71017944 385.32003418 395.71356201 386.24731445 C395.72960732 399.95182456 395.01393046 413.46107476 393.51611328 427.08251953 C393.42907135 427.88076141 393.34202942 428.6790033 393.25234985 429.50143433 C392.3648705 437.47181856 391.26191175 445.27431406 389.39111328 453.08251953 C389.07300886 455.26633163 388.77958 457.45394423 388.51611328 459.64501953 C387.51653641 466.97524993 385.77714587 473.96079524 383.88647461 481.10180664 C383.35704987 483.21872282 382.91041188 485.3448062 382.46533203 487.48095703 C381.41634477 492.26460399 379.86962748 496.79543199 378.20361328 501.39501953 C377.57427528 503.15528189 376.94538189 504.91570327 376.31689453 506.67626953 C375.99672363 507.56958984 375.67655273 508.46291016 375.34667969 509.38330078 C374.41492328 512.01526266 373.51301411 514.65540732 372.62158203 517.30126953 C369.36819973 526.91745335 365.81412455 536.17944038 361.29150391 545.27148438 C360.37994001 547.10499332 359.48618072 548.94642783 358.59423828 550.78955078 C347.38373164 573.77197118 334.60012971 595.52601292 319.39111328 616.08251953 C318.99601563 616.61796387 318.60091797 617.1534082 318.19384766 617.70507812 C303.70672608 637.22475544 287.04115119 656.33760398 268.57470703 672.17626953 C266.04583504 674.38394311 263.59963957 676.67183082 261.14111328 678.95751953 C255.50695399 684.08862889 249.545996 688.6000774 243.39111328 693.08251953 C242.29470799 693.90754718 241.19969046 694.73442181 240.10595703 695.56298828 C223.15051216 708.33219888 205.39230884 719.62630719 186.39111328 729.08251953 C184.96469749 729.80653116 183.53890312 730.53176853 182.11376953 731.25830078 C178.22294125 733.23445614 174.31212791 735.16708745 170.39111328 737.08251953 C168.76496094 737.88302734 168.76496094 737.88302734 167.10595703 738.69970703 C160.4836791 741.86724022 153.78108809 744.45527206 146.84423828 746.82421875 C141.96889932 748.49435176 137.21046678 750.35257107 132.45361328 752.33251953 C127.66546069 754.30276414 123.07114834 755.75570156 117.95751953 756.59814453 C114.82487299 757.18938985 111.82524445 758.06081817 108.76611328 758.95751953 C95.79234219 762.7345654 83.02021723 765.69609488 69.62719727 767.46557617 C67.32489596 767.77051188 65.02505719 768.0905203 62.72509766 768.41259766 C54.33177046 769.5651453 45.99176474 770.41185168 37.5300293 770.84741211 C34.49862208 771.00244168 34.49862208 771.00244168 32.00683594 771.59594727 C28.29743487 772.28596372 24.60823409 772.26472966 20.84814453 772.28564453 C19.5992469 772.29603004 19.5992469 772.29603004 18.32511902 772.30662537 C15.61790283 772.32397298 12.91088263 772.33022635 10.20361328 772.33251953 C9.27895264 772.33385895 8.35429199 772.33519836 7.40161133 772.33657837 C-6.80242951 772.33211614 -20.55787659 771.56748755 -34.62597656 769.49707031 C-37.74735896 769.06327531 -40.86899106 768.71683576 -44.00341797 768.39111328 C-60.85205278 766.62147037 -76.97323671 763.39227012 -93.10498047 758.17626953 C-95.94275024 757.29045511 -98.77937882 756.46768921 -101.64404297 755.67626953 C-110.3640875 753.26526899 -118.85024956 750.85450965 -127.13232422 747.15673828 C-129.39923543 746.1734566 -131.6201379 745.41664418 -133.98388672 744.70751953 C-139.2363817 743.03930425 -144.01860294 740.44375561 -148.88623047 737.89892578 C-151.63643251 736.50095995 -154.42337331 735.35687606 -157.30419922 734.25439453 C-163.31091802 731.89568772 -168.8955247 728.87097058 -174.54638672 725.77001953 C-175.55378906 725.22667969 -176.56119141 724.68333984 -177.59912109 724.12353516 C-203.44019524 710.04804332 -226.76048885 692.11153917 -248.77294922 672.69970703 C-250.07484682 671.55292914 -251.38277227 670.4129781 -252.69482422 669.27783203 C-253.38833984 668.67712891 -254.08185547 668.07642578 -254.79638672 667.45751953 C-255.40869141 666.92900391 -256.02099609 666.40048828 -256.65185547 665.85595703 C-268.26613341 655.33124209 -278.89364023 643.35940328 -288.60888672 631.08251953 C-290.08730317 629.31105982 -291.5664902 627.54024297 -293.04638672 625.77001953 C-308.19789657 607.19044787 -320.64393464 586.58970615 -332.19506836 565.6394043 C-333.12892549 563.95052746 -334.07069125 562.26599674 -335.02075195 560.58618164 C-337.15954626 556.7981871 -339.16223472 553.11227822 -340.67138672 549.02001953 C-341.82087011 546.0175689 -343.03454671 543.16873138 -344.54638672 540.33251953 C-346.96751821 535.63211972 -348.60247237 530.67548979 -350.33154297 525.68798828 C-351.46633739 522.48488354 -352.70266127 519.35387317 -353.98388672 516.20751953 C-357.55893225 507.00009094 -360.10400332 497.46015818 -362.78320312 487.96240234 C-363.50126666 485.45788506 -364.25223231 482.96840118 -365.02685547 480.48095703 C-368.77795903 468.20064243 -370.50787149 455.71058422 -372.2109375 443.00439453 C-372.52727037 440.68177378 -372.86331153 438.3662923 -373.22998047 436.05126953 C-380.83975259 387.44311272 -377.4793717 333.35625929 -363.60888672 286.08251953 C-363.19001185 284.61012076 -362.77203982 283.13746483 -362.35498047 281.66455078 C-358.63871571 268.66053657 -354.55731395 255.89716376 -349.08544922 243.50830078 C-347.61080094 240.08696072 -346.28445269 236.63580242 -344.98388672 233.14501953 C-343.69608856 229.73832025 -342.42193846 226.51850647 -340.54638672 223.39501953 C-339.00641501 220.76216467 -338.01198414 218.59131013 -336.98388672 215.77001953 C-317.88945247 166.93233192 -275.14328114 119.24387215 -234.60888672 87.08251953 C-233.45793533 86.14129108 -232.30827147 85.19848674 -231.15966797 84.25439453 C-222.30388732 77.0106757 -213.16078025 70.37618056 -203.60888672 64.08251953 C-202.90344727 63.61378418 -202.19800781 63.14504883 -201.47119141 62.66210938 C-185.73300809 52.25800833 -169.07086627 42.30097225 -151.60888672 35.08251953 C-150.2711254 34.45239485 -148.9367162 33.81512483 -147.60498047 33.17236328 C-129.08118246 24.35689522 -109.24543238 17.51753591 -89.23779297 12.94189453 C-85.8091758 12.12995074 -82.45643474 11.18178549 -79.07836914 10.18676758 C-69.01289404 7.24584402 -58.99580955 5.44971961 -48.60888672 4.08251953 C-47.63467773 3.95103516 -46.66046875 3.81955078 -45.65673828 3.68408203 C-30.4211827 1.65075639 -15.36010142 0.35121866 0 0 Z M-47.54931641 61.70019531 C-49.71241845 62.10173844 -51.8783173 62.4411929 -54.05419922 62.76611328 C-63.83453428 64.23610563 -73.10621501 66.42828869 -82.52978516 69.42529297 C-84.60579662 70.08154272 -86.68776627 70.71389484 -88.77294922 71.34033203 C-97.20124583 73.88944621 -105.44211487 76.78239178 -113.60888672 80.08251953 C-114.53443359 80.44861328 -115.45998047 80.81470703 -116.41357422 81.19189453 C-119.50149596 82.44074931 -122.55663739 83.74870422 -125.60888672 85.08251953 C-126.26002441 85.36514648 -126.91116211 85.64777344 -127.58203125 85.93896484 C-150.65052168 96.06556028 -171.64445319 109.82341853 -191.60888672 125.08251953 C-192.44291016 125.71931641 -193.27693359 126.35611328 -194.13623047 127.01220703 C-200.25030975 131.7885218 -205.91572083 136.97606531 -211.57763672 142.27001953 C-213.91642043 144.45326837 -216.29870146 146.5691239 -218.73388672 148.64501953 C-226.64811645 155.52623401 -233.7710492 163.00423808 -240.29638672 171.20751953 C-242.37875673 173.79641198 -244.5195825 176.3115511 -246.6953125 178.82104492 C-252.54017282 185.58755593 -257.68438974 192.60752143 -262.60888672 200.08251953 C-262.97723633 200.64052246 -263.34558594 201.19852539 -263.72509766 201.7734375 C-266.40384087 205.84498778 -269.01793667 209.95468048 -271.60888672 214.08251953 C-271.96950195 214.65131836 -272.33011719 215.22011719 -272.70166016 215.80615234 C-277.73341711 223.77649152 -282.19132399 231.97166493 -286.42138672 240.39501953 C-287.10563721 241.75530273 -287.10563721 241.75530273 -287.80371094 243.14306641 C-290.35921981 248.30871722 -292.65631665 253.51337002 -294.7487793 258.88305664 C-295.78061888 261.52167224 -296.91293961 264.11118048 -298.04638672 266.70751953 C-300.79229452 273.28765226 -302.89041621 280.01540302 -304.92773438 286.83740234 C-305.64619481 289.20548915 -306.3967385 291.56181797 -307.15185547 293.91845703 C-310.36190863 304.05739459 -312.71710777 313.98574281 -314.22607422 324.50683594 C-314.6647684 327.45850914 -315.1499153 330.40068954 -315.64013672 333.34423828 C-315.91156494 334.98549683 -315.91156494 334.98549683 -316.18847656 336.65991211 C-316.54104511 338.79157882 -316.89541328 340.92294901 -317.25195312 343.05395508 C-319.40113687 356.31011185 -319.81231115 369.37258652 -319.79638672 382.77001953 C-319.79611481 383.628797 -319.7958429 384.48757446 -319.79556274 385.37237549 C-319.76805539 404.31283814 -318.91898776 422.98159607 -315.26513672 441.60595703 C-314.72155406 444.48565089 -314.31929312 447.29326908 -314.04638672 450.20751953 C-313.61592814 454.02015265 -312.69969757 457.42916226 -311.60888672 461.08251953 C-311.09116581 462.86093446 -310.5743119 464.63960191 -310.05810547 466.41845703 C-309.15855828 469.505795 -308.25678251 472.59244181 -307.35107422 475.67797852 C-305.96255956 480.41242779 -304.5801317 485.14588372 -303.28466797 489.90673828 C-301.00878664 498.17682915 -298.17681123 505.73456977 -294.35498047 513.42236328 C-292.99414484 516.17834456 -291.84761578 518.97427816 -290.73779297 521.84033203 C-279.45446983 550.45267743 -260.82348816 577.08308645 -240.60888672 600.08251953 C-240.00947266 600.78119141 -239.41005859 601.47986328 -238.79248047 602.19970703 C-237.08643072 604.18119132 -235.35333257 606.13473336 -233.60888672 608.08251953 C-232.76197266 609.03384766 -231.91505859 609.98517578 -231.04248047 610.96533203 C-220.18829696 623.02224641 -208.40155228 634.09759485 -195.60888672 644.08251953 C-194.96661133 644.5867041 -194.32433594 645.09088867 -193.66259766 645.61035156 C-185.23221109 652.21318536 -176.79742832 658.55869466 -167.60888672 664.08251953 C-165.94784218 665.10607141 -164.28683449 666.12968537 -162.62719727 667.15551758 C-160.96530118 668.18043675 -159.29886828 669.19798803 -157.63232422 670.21533203 C-155.07245042 671.79623601 -152.55933306 673.42901952 -150.04638672 675.08251953 C-146.69548525 677.41778192 -146.69548525 677.41778192 -142.60888672 677.08251953 C-142.60888672 677.74251953 -142.60888672 678.40251953 -142.60888672 679.08251953 C-131.66082506 684.46393257 -120.76182515 689.67091955 -109.26513672 693.77392578 C-104.69067878 695.41115165 -100.18375848 697.20424622 -95.67138672 699.00439453 C-92.78364446 700.02099767 -89.90038895 700.78852285 -86.92529297 701.50195312 C-84.23816246 702.17543503 -81.58269447 702.93441119 -78.92138672 703.70361328 C-50.10981587 712.01578105 -21.61468428 715.31113788 8.32861328 715.27001953 C9.45973541 715.26961166 9.45973541 715.26961166 10.6137085 715.26919556 C28.78027637 715.23932341 46.76456227 714.31168108 64.62158203 710.79345703 C68.20796816 710.11706089 71.7687259 709.64237011 75.39111328 709.20751953 C82.85786124 708.17117909 89.82645321 706.03401241 97.00195312 703.80322266 C99.57586545 703.02678804 102.16113677 702.30720591 104.75439453 701.59814453 C113.14653545 699.29775695 121.2557561 697.06615669 129.08251953 693.18408203 C132.73868419 691.43951615 136.527586 690.28591327 140.39111328 689.08251953 C140.39111328 688.42251953 140.39111328 687.76251953 140.39111328 687.08251953 C141.21353516 687.00388672 142.03595703 686.92525391 142.88330078 686.84423828 C147.25797463 685.89428127 150.63045354 684.05961162 154.51611328 681.89501953 C156.04142769 681.06295579 157.567472 680.23222871 159.09423828 679.40283203 C159.83351563 678.99967773 160.57279297 678.59652344 161.33447266 678.18115234 C163.93850693 676.79010839 166.59634198 675.52948791 169.26611328 674.27001953 C184.01315611 666.93690097 197.45300667 657.19783504 210.39111328 647.08251953 C211.28958984 646.38642578 212.18806641 645.69033203 213.11376953 644.97314453 C215.56780823 643.04183603 217.98320418 641.07101056 220.39111328 639.08251953 C221.37466797 638.28458984 222.35822266 637.48666016 223.37158203 636.66455078 C231.03634973 630.34327046 238.15962438 623.52315937 245.20361328 616.52001953 C246.51036011 615.22704956 246.51036011 615.22704956 247.84350586 613.90795898 C253.78081777 607.94241449 259.17780199 601.68671305 264.39111328 595.08251953 C264.96144287 594.36620361 265.53177246 593.6498877 266.11938477 592.91186523 C295.537813 555.69236955 316.5152574 513.66198094 328.65673828 467.81152344 C329.27633756 465.5090365 329.92736962 463.22238218 330.60986328 460.93798828 C333.45546676 451.16161571 334.83637095 441.28031271 336.01049805 431.1887207 C336.27776633 429.00754411 336.58094758 426.83061278 336.91040039 424.65795898 C338.85524188 410.82363583 338.72744902 396.98205979 338.70330811 383.03411865 C338.70361337 381.01945817 338.71367649 379.00509032 338.72729492 376.99047852 C338.82335579 362.66698911 338.78257953 349.04506696 335.39111328 335.08251953 C335.05964889 333.08557496 334.74393697 331.08585884 334.45361328 329.08251953 C332.76555712 318.74317557 329.84743777 308.63456167 327.02392578 298.55908203 C326.43016668 296.23535813 326.023257 293.94855827 325.64111328 291.58251953 C320.48775435 264.47325324 305.02061073 236.14347613 290.39111328 213.08251953 C289.99214844 212.4523291 289.59318359 211.82213867 289.18212891 211.17285156 C280.07343383 196.91209667 269.8866011 183.41710581 258.76855469 170.66479492 C257.79079734 169.54163906 256.819791 168.41259019 255.85351562 167.27954102 C244.87454238 154.50909339 232.75777565 142.34201915 219.39111328 132.08251953 C218.26829945 131.16302054 217.14873498 130.23954517 216.03173828 129.31298828 C204.10170384 119.46859064 191.33720128 111.00468213 178.14111328 102.95751953 C177.54556641 102.59118408 176.95001953 102.22484863 176.33642578 101.84741211 C172.79460775 99.73030656 169.34763508 98.24549715 165.39111328 97.08251953 C165.39111328 96.42251953 165.39111328 95.76251953 165.39111328 95.08251953 C164.25673828 94.55142578 163.12236328 94.02033203 161.95361328 93.47314453 C160.43275522 92.75965557 158.91192329 92.04611092 157.39111328 91.33251953 C156.64732422 90.98447266 155.90353516 90.63642578 155.13720703 90.27783203 C151.49632653 88.56820119 147.87914886 86.83097564 144.29736328 85.00048828 C140.57693777 83.13016567 136.7970405 81.58187645 132.89111328 80.14501953 C132.20895752 79.89123535 131.52680176 79.63745117 130.82397461 79.37597656 C125.28272038 77.3442468 119.68107502 75.55190015 114.03491211 73.83666992 C110.32646375 72.70650651 106.69498374 71.47772418 103.07861328 70.08251953 C88.68179583 64.79083217 74.01639418 62.20065405 58.83691406 60.38671875 C55.55247286 59.97821269 52.2861958 59.4671911 49.01611328 58.95751953 C35.88671891 57.08711635 22.63135784 56.87688221 9.39111328 56.89501953 C8.25757416 56.8954274 8.25757416 56.8954274 7.10113525 56.89584351 C-11.3463521 56.92613932 -29.42869395 58.14031586 -47.54931641 61.70019531 Z " fill="#B39E7F" transform="translate(531.60888671875,160.91748046875)"/>
<path d="M0 0 C0.98774414 0.25813477 1.97548828 0.51626953 2.99316406 0.78222656 C17.60965819 4.62017195 31.14248372 8.97169918 44 17 C45.60294922 17.98806641 45.60294922 17.98806641 47.23828125 18.99609375 C50.22289336 20.92002659 53.11776212 22.9261947 56 25 C57.03382813 25.73605469 58.06765625 26.47210938 59.1328125 27.23046875 C91.43237164 50.80372048 110.35672939 85.80616549 118.52330685 124.47805977 C119.1604766 129.18564527 119.13421186 133.80909005 119.12025452 138.5541687 C119.12153615 140.14831862 119.12153615 140.14831862 119.12284368 141.77467358 C119.12449062 145.33531386 119.11898994 148.89590703 119.11352539 152.45654297 C119.11324332 155.00911966 119.11340163 157.56169643 119.1139679 160.11427307 C119.11419561 165.60956293 119.1113594 171.10483762 119.10573006 176.60012436 C119.09759633 184.54534332 119.09499791 192.49055655 119.09374207 200.43577923 C119.09155449 213.32698108 119.08490239 226.21817659 119.07543945 239.109375 C119.06625772 251.63053353 119.05918061 264.15169034 119.05493164 276.67285156 C119.05453756 277.83093483 119.05453756 277.83093483 119.05413551 279.01241373 C119.05283045 282.88566436 119.05156675 286.75891501 119.05032361 290.63216567 C119.03996017 322.75478273 119.02152679 354.877388 119 387 C99.53 387 80.06 387 60 387 C59.9906543 379.51578369 59.98130859 372.03156738 59.97167969 364.32055664 C59.93891002 340.32116905 59.88658148 316.3218645 59.82207905 292.32254303 C59.81206266 288.58913389 59.80221835 284.85572432 59.79248047 281.12231445 C59.7905391 280.37912004 59.78859772 279.63592562 59.78659752 278.87021016 C59.75565194 266.86689304 59.73861772 254.863595 59.72680578 242.86024553 C59.71435551 230.526024 59.68676725 218.19190191 59.64538693 205.8577432 C59.62036188 198.25869426 59.60687463 190.65981045 59.60857043 183.06071972 C59.60860395 177.21477879 59.58748479 171.36905514 59.55883217 165.52319145 C59.55036973 163.13892417 59.54855812 160.7546217 59.55419731 158.37034607 C59.58840958 141.67040041 58.54156426 126.09062802 51.3125 110.75 C50.97001221 110.0067749 50.62752441 109.2635498 50.2746582 108.49780273 C40.35411516 87.65815485 22.84372085 70.90477191 1 63 C-19.64328569 56.3743166 -40.3893335 55.70009207 -61.24609375 61.90625 C-65 63 -65 63 -68 63 C-68 63.66 -68 64.32 -68 65 C-68.928125 65.350625 -69.85625 65.70125 -70.8125 66.0625 C-80.50202295 70.26259564 -88.47049066 76.70726769 -96 84 C-96.8185144 84.75845215 -96.8185144 84.75845215 -97.65356445 85.53222656 C-102.1780875 89.8398839 -105.5028596 94.39056668 -108.6875 99.75 C-109.40401733 100.94677368 -109.40401733 100.94677368 -110.13500977 102.16772461 C-113.53517525 107.96323406 -116.17646669 113.52086521 -118 120 C-118.33277073 121.1148474 -118.66554146 122.22969481 -119.00839615 123.37832546 C-122.56538565 136.14101812 -122.57717743 148.61679847 -122.54589844 161.78735352 C-122.55464943 164.24303843 -122.56514048 166.69871766 -122.57722473 169.15438843 C-122.59920794 174.40668637 -122.60929305 179.65885785 -122.60811615 184.91119576 C-122.60643588 192.50484386 -122.62689281 200.09831062 -122.65247145 207.69191002 C-122.69339883 220.01684719 -122.71682609 232.34175137 -122.72900391 244.66674805 C-122.74086007 256.62771771 -122.76110987 268.58862546 -122.79248047 280.54956055 C-122.79441657 281.28885615 -122.79635267 282.02815175 -122.79834744 282.78985024 C-122.80811311 286.49928357 -122.81804202 290.20871644 -122.82805204 293.91814911 C-122.91067005 324.61208812 -122.96151593 355.30596484 -123 386 C-142.47 386 -161.94 386 -182 386 C-182.06622108 353.38764522 -182.12158091 320.77535606 -182.15319599 288.16295421 C-182.1569478 284.30679683 -182.1608308 280.45063959 -182.16479492 276.59448242 C-182.16558185 275.82683847 -182.16636878 275.05919451 -182.16717956 274.26828862 C-182.18020922 261.86266902 -182.20384951 249.45709142 -182.23145839 237.05149668 C-182.25958069 224.30827702 -182.27619064 211.56507926 -182.28226548 198.82182986 C-182.28636782 190.96787589 -182.29929239 183.11404065 -182.3237494 175.26012326 C-182.34158412 169.2227876 -182.3433485 163.18555262 -182.33932304 157.14818764 C-182.34014445 154.68243049 -182.34605921 152.21666861 -182.35761642 149.75093842 C-182.41380369 137.13860392 -182.30092589 125.2362863 -179 113 C-178.72947909 111.98163024 -178.45895819 110.96326048 -178.18023968 109.91403103 C-177.45365545 107.27288515 -176.65362688 104.66931028 -175.8125 102.0625 C-175.51279297 101.12937988 -175.21308594 100.19625977 -174.90429688 99.23486328 C-172.06400243 90.69494704 -168.3643066 82.85175608 -164 75 C-163.43539063 73.94683594 -162.87078125 72.89367187 -162.2890625 71.80859375 C-143.44655417 37.8832325 -110.30809329 12.77171804 -73.23535156 2.15454102 C-70.49622103 1.41039355 -67.75107941 0.69849582 -65 0 C-64.29198242 -0.19062012 -63.58396484 -0.38124023 -62.85449219 -0.57763672 C-43.77565573 -5.57356768 -18.86901327 -5.29441834 0 0 Z " fill="#B49E7F" transform="translate(581,350)"/>
<path d="M0 0 C21.45 0 42.9 0 65 0 C65 19.8 65 39.6 65 60 C43.55 60 22.1 60 0 60 C0 40.2 0 20.4 0 0 Z " fill="#B19C7E" transform="translate(545,553)"/>
</svg>
